<mxfile host="app.diagrams.net" modified="2023-03-31T05:56:29.961Z" agent="Mozilla/5.0 (Macintosh; Intel Mac OS X 10_15_7) AppleWebKit/537.36 (KHTML, like Gecko) Chrome/81.0.4044.138 Safari/537.36" version="21.1.2" etag="vnGl2y3U01imPJKMI4wZ" type="github">
  <diagram name="第 1 页" id="5mofqKTw62YpgUvq-WKf">
    <mxGraphModel>
      <root>
        <mxCell id="0" />
        <mxCell id="1" parent="0" />
      </root>
    </mxGraphModel>
  </diagram>
</mxfile>
